<svg xmlns="http://www.w3.org/2000/svg" viewBox="0 0 1280 720">
  <defs><linearGradient id="g" x1="0" y1="0" x2="1" y2="1"><stop stop-color="#062f29"/><stop offset=".65" stop-color="#135343"/><stop offset="1" stop-color="#263f30"/></linearGradient></defs>
  <rect width="1280" height="720" fill="url(#g)"/>
  <circle cx="880" cy="190" r="82" fill="none" stroke="#ddc58e" stroke-width="2" opacity=".55"/>
  <path d="m0 478 169-118 89 39 178-202 82 114 114-86 113 141 122-163 114 115 97-57 202 168v291H0Z" fill="#d8c69c" opacity=".75"/>
  <path d="m0 534 170-88 106 65 144-152 125 120 133-63 154 88 149-111 121 68 178-48v307H0Z" fill="#21604d"/>
  <path d="M0 594c144-70 246 2 371 24 145 26 208-39 337-45 171-7 297 86 572 5v142H0Z" fill="#062f29"/>
  <text x="75" y="105" fill="#e8d7ae" font-family="Noto Serif CJK SC, Songti SC, SimSun, serif" font-size="32" letter-spacing="8">清原山序 · 企业影像资料</text>
  <text x="75" y="644" fill="#f6f3e9" font-family="Noto Serif CJK SC, Songti SC, SimSun, serif" font-size="28" letter-spacing="5">企业原始影像待接入</text>
</svg>
